<svg width="44" height="44" xmlns="http://www.w3.org/2000/svg"><path d="M17 22a5 5 0 1 1 10.001.001A5 5 0 0 1 17 22Zm15-2s-.966-.141-2.341-.318a7.897 7.897 0 0 0-.602-1.453c.848-1.102 1.428-1.886 1.428-1.886l-2.828-2.828s-.784.583-1.881 1.431a7.85 7.85 0 0 0-1.452-.603C24.144 12.964 24 12 24 12h-4s-.141.966-.318 2.341a7.897 7.897 0 0 0-1.453.602c-1.102-.848-1.886-1.428-1.886-1.428l-2.828 2.828s.583.784 1.431 1.881a7.856 7.856 0 0 0-.601 1.446C12.962 19.852 12 20 12 20v4s.964.145 2.343.324c.152.503.353.985.597 1.441-.85 1.107-1.425 1.892-1.425 1.892l2.828 2.828s.785-.579 1.886-1.428c.456.244.938.446 1.441.598C19.852 31.038 20 32 20 32h4s.145-.964.324-2.343a7.894 7.894 0 0 0 1.441-.597c1.107.85 1.892 1.425 1.892 1.425l2.828-2.828s-.579-.785-1.428-1.887c.245-.457.447-.941.6-1.446C31.036 24.144 32 24 32 24v-4Z" fill="#2D2D2D" fill-rule="evenodd"/></svg>