<?xml version="1.0" encoding="iso-8859-1"?>
<!-- Uploaded to: SVG Repo, www.svgrepo.com, Generator: SVG Repo Mixer Tools -->
<!DOCTYPE svg PUBLIC "-//W3C//DTD SVG 1.1//EN" "http://www.w3.org/Graphics/SVG/1.1/DTD/svg11.dtd">
<svg fill="#000000" version="1.1" id="Capa_1" xmlns="http://www.w3.org/2000/svg" xmlns:xlink="http://www.w3.org/1999/xlink" 
	 width="800px" height="800px" viewBox="0 0 403.172 403.172"
	 xml:space="preserve">
<g>
	<g>
		<g>
			<path d="M201.586,0c-85.468,0-155,69.532-155,155c0,51.179,24.938,96.635,63.294,124.878l80.073,117.154
				c2.625,3.843,6.979,6.14,11.633,6.14c4.654,0,9.007-2.297,11.633-6.14l80.073-117.154
				c38.356-28.243,63.294-73.699,63.294-124.878C356.586,69.532,287.054,0,201.586,0z M219.273,261.572
				c-5.724,0.672-11.641,1.058-17.688,1.058s-11.965-0.386-17.688-1.056c-51.183-8.467-90.343-53.03-90.343-106.574
				c0-59.568,48.462-108.03,108.03-108.03c59.568,0,108.03,48.462,108.03,108.03C309.616,208.544,270.457,253.107,219.273,261.572z"
				/>
			<circle cx="201.586" cy="155" r="56.364"/>
		</g>
	</g>
</g>
</svg>