<?xml version="1.0" encoding="iso-8859-1"?>
<!-- Uploaded to: SVG Repo, www.svgrepo.com, Generator: SVG Repo Mixer Tools -->
<!DOCTYPE svg PUBLIC "-//W3C//DTD SVG 1.1//EN" "http://www.w3.org/Graphics/SVG/1.1/DTD/svg11.dtd">
<svg fill="#000000" height="800px" width="800px" version="1.1" id="Capa_1" xmlns="http://www.w3.org/2000/svg" xmlns:xlink="http://www.w3.org/1999/xlink" 
	 viewBox="0 0 221.038 221.038" xml:space="preserve">
<path d="M181.3,112.812c-3.075-8.697-7.338-17.112-12.662-24.998c-2.852-4.244-6.052-8.848-9.439-13.723
	c-14.149-20.361-33.527-48.247-35.974-63.9C122.279,4.286,117.23,0,111.222,0c-3.538,0-6.888,1.553-9.191,4.261l0.016,0.014
	c-2.042,2.22-6.025,7.263-8.631,12.332c-3.078,5.991-5.16,11.612-6.36,17.163c-2.402,10.955-2.142,22.804,0.752,34.263
	c0.906,3.592,2.088,7.153,3.519,10.595l0.2,0.477c0.98,2.341,1.906,4.552,2.035,6.332c0.059,0.954-0.607,1.771-0.896,2.078
	c-0.748,0.795-1.787,1.29-2.712,1.29c-2.041,0-3.138-0.977-3.558-3.178c-0.89-4.618-4.939-7.97-9.629-7.97
	c-1.723,0-3.425,0.461-4.951,1.35c-23.204,13.645-37.618,38.837-37.618,65.762c0.057,26.504,13.481,50.672,35.928,64.709
	c0.087,0.059,0.176,0.116,0.266,0.171l0.117,0.069c12.009,7.407,25.847,11.322,40.02,11.322c14.169,0,27.984-3.903,39.954-11.289
	c17.796-10.997,30.441-28.974,34.693-49.32C188.332,145.344,186.992,128.876,181.3,112.812z M170.491,157.357
	c-3.415,16.341-13.583,30.786-27.892,39.628c-9.597,5.922-20.688,9.052-32.073,9.052c-11.373,0-22.474-3.134-32.117-9.071
	c-0.045-0.029-0.089-0.058-0.135-0.085c-18.163-11.266-29.034-30.76-29.079-52.13c0-19.562,9.483-37.995,25.081-49.434
	c3.264,5.31,8.903,8.486,15.676,8.486c5.072,0,10.043-2.191,13.637-6.011c3.484-3.703,5.239-8.415,4.938-13.352
	c-0.31-4.312-1.827-7.935-3.165-11.131l-0.189-0.451c-1.145-2.754-2.093-5.612-2.821-8.497c-2.328-9.218-2.55-18.685-0.639-27.401
	c0.924-4.274,2.574-8.689,5.045-13.498c0.866-1.685,1.97-3.39,3.034-4.882c5.407,18.474,22.145,42.562,37.091,64.07
	c3.353,4.825,6.52,9.383,9.316,13.543c4.622,6.846,8.309,14.119,10.962,21.623C171.934,131.292,173.086,144.964,170.491,157.357z"/>
</svg>