<?xml version="1.0" encoding="iso-8859-1"?>
<!-- Uploaded to: SVG Repo, www.svgrepo.com, Generator: SVG Repo Mixer Tools -->
<svg fill="#000000" height="800px" width="800px" version="1.1" id="Capa_1" xmlns="http://www.w3.org/2000/svg" xmlns:xlink="http://www.w3.org/1999/xlink" 
	 viewBox="0 0 490 490" xml:space="preserve">
<g>
	<path d="M276.161,58.174V20.417h30.495V0h-81.407v20.417h30.495V58.36c-22.555,1.258-44.569,5.978-65.597,14.11
		c-5.258,2.033-7.871,7.945-5.836,13.204c2.039,5.263,7.95,7.885,13.204,5.836c22.46-8.682,46.177-13.089,70.492-13.089
		c107.845,0,195.583,87.738,195.583,195.584c0,107.841-87.739,195.578-195.583,195.578c-100.347,0-183.273-75.972-194.315-173.416
		l57.175,47.177c4.347,3.588,10.782,2.971,14.37-1.381c3.589-4.347,2.971-10.781-1.38-14.37l-75.077-61.948
		c-2.632-2.517-10.856-4.775-15.487,3.046L7.24,354.446c-2.667,4.969-0.953,11.453,4.162,13.822
		c6.519,3.019,11.983-0.733,13.822-4.162l29.626-55.166C71.599,411.485,160.799,490,268.006,490c119.101,0,216-96.895,216-215.995
		C484.007,157.636,391.496,62.479,276.161,58.174z"/>
	<path d="M268.006,227.2c-25.805,0-46.8,20.995-46.8,46.805c0,25.805,20.995,46.8,46.8,46.8c6.166,0,12.052-1.21,17.448-3.387
		l69.867,77.768c3.763,4.191,10.208,4.546,14.415,0.768c4.192-3.764,4.536-10.219,0.768-14.416l-68.119-75.821
		c7.704-8.345,12.421-19.486,12.421-31.711C314.806,248.195,293.811,227.2,268.006,227.2z M268.006,300.388
		c-14.55,0-26.383-11.833-26.383-26.383c0-14.55,11.833-26.388,26.383-26.388c14.55,0,26.383,11.838,26.383,26.388
		C294.39,288.555,282.556,300.388,268.006,300.388z"/>
</g>
</svg>